<svg width="27" height="27" viewBox="0 0 27 27" fill="none" xmlns="http://www.w3.org/2000/svg">
<path d="M15.0862 13.5L19.9237 8.67375C20.1355 8.4619 20.2545 8.17458 20.2545 7.875C20.2545 7.57541 20.1355 7.28809 19.9237 7.07625C19.7118 6.8644 19.4245 6.74539 19.1249 6.74539C18.8253 6.74539 18.538 6.8644 18.3262 7.07625L13.4999 11.9137L8.67368 7.07625C8.46184 6.8644 8.17452 6.74539 7.87493 6.74539C7.57534 6.74539 7.28802 6.8644 7.07618 7.07625C6.86434 7.28809 6.74533 7.57541 6.74533 7.875C6.74533 8.17458 6.86434 8.4619 7.07618 8.67375L11.9137 13.5L7.07618 18.3262C6.97074 18.4308 6.88704 18.5553 6.82993 18.6923C6.77281 18.8294 6.74341 18.9765 6.74341 19.125C6.74341 19.2735 6.77281 19.4206 6.82993 19.5576C6.88704 19.6947 6.97074 19.8192 7.07618 19.9237C7.18076 20.0292 7.30519 20.1129 7.44228 20.17C7.57937 20.2271 7.72642 20.2565 7.87493 20.2565C8.02344 20.2565 8.17049 20.2271 8.30758 20.17C8.44467 20.1129 8.5691 20.0292 8.67368 19.9237L13.4999 15.0862L18.3262 19.9237C18.4308 20.0292 18.5552 20.1129 18.6923 20.17C18.8294 20.2271 18.9764 20.2565 19.1249 20.2565C19.2734 20.2565 19.4205 20.2271 19.5576 20.17C19.6947 20.1129 19.8191 20.0292 19.9237 19.9237C20.0291 19.8192 20.1128 19.6947 20.1699 19.5576C20.227 19.4206 20.2565 19.2735 20.2565 19.125C20.2565 18.9765 20.227 18.8294 20.1699 18.6923C20.1128 18.5553 20.0291 18.4308 19.9237 18.3262L15.0862 13.5Z" fill="black"/>
</svg>
